<svg xmlns="http://www.w3.org/2000/svg" width="700" height="300" viewBox="0 0 700 300" role="img" font-family="-apple-system, BlinkMacSystemFont, 'Segoe UI', Helvetica, Arial, sans-serif">
  <title>All eleven players committed</title>
  <desc>Eleven effort bars all sitting above the expected bar. The straight average and the weakest-link mean land in nearly the same place, both above the bar.</desc>
  <text x="120" y="30" font-size="15" font-weight="500" fill="#2C2C2A">All eleven committed</text>

  <line x1="120" y1="93.9" x2="500" y2="93.9" stroke="#B4B2A9" stroke-width="1" stroke-dasharray="2 4"/>
  <text x="112" y="97" font-size="12" fill="#5F5E5A" text-anchor="end">Expected bar (1.0)</text>

  <rect x="120.0" y="79.2" width="29.1" height="160.8" rx="3" fill="#1D9E75" opacity="0.85"/>
  <rect x="155.1" y="86.5" width="29.1" height="153.5" rx="3" fill="#1D9E75" opacity="0.85"/>
  <rect x="190.2" y="76.3" width="29.1" height="163.7" rx="3" fill="#1D9E75" opacity="0.85"/>
  <rect x="225.3" y="82.2" width="29.1" height="157.8" rx="3" fill="#1D9E75" opacity="0.85"/>
  <rect x="260.4" y="79.2" width="29.1" height="160.8" rx="3" fill="#1D9E75" opacity="0.85"/>
  <rect x="295.5" y="73.4" width="29.1" height="166.6" rx="3" fill="#1D9E75" opacity="0.85"/>
  <rect x="330.5" y="85.1" width="29.1" height="154.9" rx="3" fill="#1D9E75" opacity="0.85"/>
  <rect x="365.6" y="77.8" width="29.1" height="162.2" rx="3" fill="#1D9E75" opacity="0.85"/>
  <rect x="400.7" y="80.7" width="29.1" height="159.3" rx="3" fill="#1D9E75" opacity="0.85"/>
  <rect x="435.8" y="74.9" width="29.1" height="165.1" rx="3" fill="#1D9E75" opacity="0.85"/>
  <rect x="470.9" y="83.6" width="29.1" height="156.4" rx="3" fill="#1D9E75" opacity="0.85"/>

  <line x1="120" y1="240" x2="500" y2="240" stroke="#888780" stroke-width="1"/>

  <line x1="120" y1="79.9" x2="500" y2="79.9" stroke="#888780" stroke-width="2" stroke-dasharray="6 4"/>
  <line x1="120" y1="80.0" x2="500" y2="80.0" stroke="#534AB7" stroke-width="2"/>

  <line x1="500" y1="80" x2="512" y2="68" stroke="#B4B2A9" stroke-width="0.75"/>
  <text x="516" y="66" font-size="12" fill="#5F5E5A">Average 1.10</text>
  <text x="516" y="82" font-size="12" fill="#534AB7">Weakest-link 1.09</text>
  <text x="516" y="98" font-size="12" fill="#888780">they agree</text>

  <text x="120" y="278" font-size="12" fill="#5F5E5A">When everyone meets the bar, the two ways of scoring the team land in the same place.</text>
</svg>
